<?xml version="1.0" encoding="iso-8859-1"?>
<!-- Generator: Adobe Illustrator 19.0.0, SVG Export Plug-In . SVG Version: 6.00 Build 0)  -->
<svg version="1.1" id="Capa_1" xmlns="http://www.w3.org/2000/svg" xmlns:xlink="http://www.w3.org/1999/xlink" x="0px" y="0px"
	 viewBox="0 0 512 512" style="enable-background:new 0 0 512 512;" xml:space="preserve">
<rect x="344.131" y="411.279" style="fill:#BFBFBF;" width="50.361" height="83.934"/>
<path style="fill:#CFCFCF;" d="M453.246,344.131v-67.148h-33.574v67.148l0,0c-13.908,0-25.18,11.272-25.18,25.18v125.902h83.934
	V369.311C478.426,355.404,467.154,344.131,453.246,344.131z"/>
<rect x="428.066" y="386.098" style="fill:#BFBFBF;" width="50.361" height="75.541"/>
<path style="fill:#CFCFCF;" d="M369.311,377.705L369.311,377.705c13.908,0,25.18,11.272,25.18,25.18v8.393l0,0h-50.361l0,0v-8.393
	C344.131,388.977,355.404,377.705,369.311,377.705z"/>
<g>
	<path style="fill:#DE4C3C;" d="M83.934,386.098L83.934,386.098c9.921,0.008,17.97-8.033,17.97-17.954
		c0-3.559-1.058-7.042-3.03-9.997l-14.94-22.41l-14.94,22.41c-5.514,8.242-3.307,19.397,4.944,24.92
		C76.892,385.041,80.376,386.098,83.934,386.098z"/>
	<path style="fill:#DE4C3C;" d="M167.869,386.098L167.869,386.098c9.921,0.008,17.97-8.033,17.97-17.954
		c0-3.559-1.058-7.042-3.03-9.997l-14.94-22.41l-14.94,22.41c-5.514,8.242-3.307,19.397,4.944,24.92
		C160.827,385.041,164.31,386.098,167.869,386.098z"/>
	<path style="fill:#DE4C3C;" d="M251.803,386.098L251.803,386.098c9.921,0.008,17.97-8.033,17.97-17.954
		c0-3.559-1.058-7.042-3.03-9.997l-14.94-22.41l-14.94,22.41c-5.514,8.242-3.307,19.397,4.944,24.92
		C244.761,385.041,248.244,386.098,251.803,386.098z"/>
</g>
<g>
	<path style="fill:#CFCFCF;" d="M293.77,461.639h-16.787v-33.574H243.41v-16.787h41.967c4.633,0,8.393,3.76,8.393,8.393V461.639z"/>
	<path style="fill:#CFCFCF;" d="M58.754,461.639H41.967v-41.967c0-4.633,3.76-8.393,8.393-8.393h41.967v16.787H58.754V461.639z"/>
	<rect x="159.475" y="411.279" style="fill:#CFCFCF;" width="16.787" height="50.361"/>
	<rect x="25.18" y="461.639" style="fill:#CFCFCF;" width="285.377" height="33.574"/>
</g>
<path style="fill:#4398D1;" d="M266.911,302.164H68.826c-33.372,0-60.433-27.06-60.433-60.433l0,0l0,0v-40.289h318.951v40.289l0,0
	C327.344,275.103,300.284,302.164,266.911,302.164L266.911,302.164z"/>
<path style="fill:#126099;" d="M327.344,209.836h25.18l20.312-33.574c2.963-5.137,8.419-8.326,14.353-8.393h108.024
	c9.275,0,16.787,7.512,16.787,16.787l0,0c0,9.275-7.512,16.787-16.787,16.787h-95.937c-2.963,0-5.708,1.561-7.218,4.113
	l-22.746,37.854h-41.967"/>
<path style="fill:#FDB62F;" d="M92.328,142.689H75.541c0-18.541,15.033-33.574,33.574-33.574v16.787
	C99.84,125.902,92.328,133.414,92.328,142.689z"/>
<circle style="fill:#DE4C3C;" cx="201.443" cy="125.902" r="16.787"/>
<g>
	<path style="fill:#FDB62F;" d="M134.295,75.541h-16.787c0-9.275-7.512-16.787-16.787-16.787s-16.787,7.512-16.787,16.787H67.148
		c0-18.541,15.033-33.574,33.574-33.574S134.295,57,134.295,75.541z"/>
	<path style="fill:#FDB62F;" d="M260.197,134.295v-8.393c0-13.908,11.272-25.18,25.18-25.18l0,0c13.908,0,25.18,11.272,25.18,25.18
		v8.393H260.197z"/>
</g>
<path style="fill:#FCA430;" d="M268.59,176.262v-16.787c4.633,0,8.393-3.76,8.393-8.393v-16.787h16.787v16.787
	C293.77,164.99,282.498,176.262,268.59,176.262z"/>
<g>
	<path style="fill:#DE4C3C;" d="M159.475,176.262c-18.541,0-33.574-15.033-33.574-33.574h16.787c0,9.275,7.512,16.787,16.787,16.787
		V176.262z"/>
	<circle style="fill:#DE4C3C;" cx="167.869" cy="25.18" r="16.787"/>
	<path style="fill:#DE4C3C;" d="M50.361,159.475c-13.908,0-25.18-11.272-25.18-25.18l0,0c0-13.908,11.272-25.18,25.18-25.18l0,0
		V159.475z"/>
	<path style="fill:#DE4C3C;" d="M201.443,75.541V58.754c9.275,0,16.787-7.512,16.787-16.787h16.787
		C235.016,60.508,219.984,75.541,201.443,75.541z"/>
	<rect x="142.689" y="83.934" style="fill:#DE4C3C;" width="16.787" height="16.787"/>
</g>
<rect x="260.197" y="50.361" style="fill:#FDB62F;" width="16.787" height="16.787"/>
<rect x="226.623" y="159.475" style="fill:#DE4C3C;" width="16.787" height="16.787"/>
<rect y="486.82" style="fill:#BFBFBF;" width="503.607" height="16.787"/>
<path style="fill:#3E8CC7;" d="M24.341,282.523c11.398,12.523,27.556,19.657,44.485,19.641h198.085
	c33.372,0,60.433-27.06,60.433-60.433l0,0v-40.289h-8.393C235.016,260.197,167.869,276.984,24.341,282.523z"/>
<path style="fill:#6AA9D4;" d="M50.361,201.443v42.471c0,8.989,7.294,16.283,16.283,16.283l0,0h0.504
	c9.275,0,16.787-7.512,16.787-16.787s7.512-16.787,16.787-16.787l0,0c9.275,0,16.787,7.512,16.787,16.787v16.787
	c0,9.275,7.512,16.787,16.787,16.787s16.787-7.512,16.787-16.787v-58.754H50.361z"/>
<g>
</g>
<g>
</g>
<g>
</g>
<g>
</g>
<g>
</g>
<g>
</g>
<g>
</g>
<g>
</g>
<g>
</g>
<g>
</g>
<g>
</g>
<g>
</g>
<g>
</g>
<g>
</g>
<g>
</g>
</svg>
