<svg id="Capa_1" enable-background="new 0 0 512 512" height="512" viewBox="0 0 512 512" width="512" xmlns="http://www.w3.org/2000/svg"><g><path d="m368.226 28.057c-43.792 0-85.017 20.001-112.226 53.984-27.209-33.983-68.434-53.984-112.226-53.984-79.277 0-143.774 64.496-143.774 143.774 0 36.221 13.474 75.231 40.047 115.949 20.952 32.104 50.098 65.41 86.626 98.994 61.945 56.949 124.779 95.68 125.407 96.064 1.203.737 2.561 1.105 3.919 1.105s2.717-.369 3.919-1.105c.627-.385 63.462-39.116 125.407-96.064 36.529-33.583 65.674-66.89 86.626-98.994 26.575-40.718 40.049-79.729 40.049-115.949 0-79.278-64.497-143.774-143.774-143.774zm91.231 251.424c-20.242 31.039-48.539 63.367-84.106 96.087-52.077 47.908-104.801 82.707-119.352 92.009-14.529-9.286-67.11-43.982-119.173-91.847-35.612-32.739-63.946-65.088-84.217-96.149-24.956-38.238-37.609-74.49-37.609-107.75 0-71.006 57.768-128.774 128.774-128.774 42.313 0 81.958 20.861 106.051 55.803 1.399 2.03 3.708 3.243 6.174 3.243s4.775-1.212 6.174-3.243c24.093-34.942 63.738-55.803 106.051-55.803 71.008 0 128.776 57.767 128.776 128.774 0 33.231-12.631 69.449-37.543 107.65z"/><path d="m373.398 101.451c-21.796-9.835-51.052 39.482-64.902 70.174-1.218 2.699-2.413 5.451-3.552 8.179-1.596 3.822.209 8.215 4.031 9.811 3.821 1.597 8.214-.208 9.811-4.031 1.084-2.598 2.223-5.218 3.382-7.788 8.28-18.348 18.025-35.024 27.44-46.958 9.661-12.246 15.734-15.357 17.578-15.619 1.023 1.556 2.709 8.167-.082 23.514-2.719 14.955-8.777 33.296-17.057 51.644-6.578 14.576-14.139 28.186-21.702 39.149-17.557-20.28-43.478-33.13-72.345-33.13-14.183 0-27.653 3.106-39.772 8.667-3.308-10.755-7.639-22.171-12.724-33.438-13.85-30.691-43.103-80.013-64.902-70.174-21.796 9.836-4.171 64.403 9.679 95.095 7.8 17.285 16.964 33.355 26.045 45.74-8.88 14.513-14.004 31.562-14.004 49.787 0 52.757 42.92 95.677 95.677 95.677s95.677-42.92 95.677-95.677c0-18.224-5.123-35.272-14.002-49.785 9.079-12.383 18.25-28.472 26.044-45.742 13.851-30.692 31.476-85.259 9.68-95.095zm-211.445 88.925c-8.28-18.348-14.337-36.689-17.057-51.644-2.791-15.346-1.105-21.958-.082-23.514 1.844.262 7.917 3.374 17.578 15.619 9.415 11.934 19.16 28.61 27.44 46.958 5.327 11.805 9.778 23.745 12.991 34.778-7.123 4.78-13.572 10.488-19.17 16.954-7.56-10.96-15.116-24.562-21.7-39.151zm76.531 150.079c-.072-.108-.171-.257-.026-.529.146-.272.325-.272.455-.272h34.173c.13 0 .309 0 .455.272s.046.421-.026.53l-17.515 26.273zm32.471 30.883 15.041-22.562c3.18-4.77 3.476-10.874.771-15.928s-7.947-8.195-13.68-8.195h-34.173c-5.733 0-10.975 3.14-13.68 8.195s-2.41 11.158.771 15.928l15.041 22.562c-37.362-7.035-65.722-39.891-65.722-79.265 0-44.486 36.192-80.678 80.677-80.678s80.677 36.192 80.677 80.678c-.001 39.374-28.361 72.23-65.723 79.265z"/><path d="m207.901 284.573c-4.142 0-7.5 3.358-7.5 7.5v8.016c0 4.142 3.358 7.5 7.5 7.5s7.5-3.358 7.5-7.5v-8.016c0-4.142-3.358-7.5-7.5-7.5z"/><path d="m304.095 284.573c-4.142 0-7.5 3.358-7.5 7.5v8.016c0 4.142 3.358 7.5 7.5 7.5s7.5-3.358 7.5-7.5v-8.016c0-4.142-3.358-7.5-7.5-7.5z"/></g></svg>