<svg id="Capa_1" enable-background="new 0 0 512 512" height="512" viewBox="0 0 512 512" width="512" xmlns="http://www.w3.org/2000/svg"><g><g><path d="m247.271 470.876c5.331 3.474 12.128 3.474 17.459 0 44.043-28.705 239.77-163.875 239.77-299.045 0-75.262-61.012-136.274-136.274-136.274-46.574 0-87.647 23.399-112.226 59.046-24.579-35.647-65.652-59.046-112.226-59.046-75.262-.001-136.274 61.011-136.274 136.274 0 135.17 195.727 270.34 239.771 299.045z" fill="#b3e59f"/><path d="m313.307 180.184c20.256-44.886 45.978-77.075 57.452-71.897s4.355 45.762-15.901 90.648c-9.198 20.383-19.524 38.148-29.13 50.984l-13.062-27.252z" fill="#fff5d7"/><path d="m370.759 108.287c-11.474-5.178-37.197 27.011-57.453 71.897-6.705 14.859-11.971 29.248-15.6 42.036l18.717 18.502 2.355-8.298c3.626-12.782 8.881-26.934 15.195-40.927 14.972-33.174 31.639-56.329 42.15-64.578.551-9.975-1.134-16.723-5.364-18.632z" fill="#fff0af"/><path d="m199.139 180.184c-20.256-44.886-45.978-77.075-57.452-71.897s-4.355 45.762 15.901 90.648c9.198 20.383 19.524 38.148 29.13 50.984l28.021-27.699c-3.629-12.788-8.895-27.176-15.6-42.036z" fill="#fff5d7"/><path d="m157.587 198.935c9.198 20.383 19.524 38.148 29.131 50.984l17.835-17.63c-8.389-12.217-16.716-27.244-24.127-43.665-14.347-31.792-20.459-57.478-20.643-71.468-7.361-7.415-13.751-10.829-18.096-8.868-11.473 5.177-4.355 45.762 15.9 90.647z" fill="#fff0af"/><circle cx="256" cy="292.073" fill="#fff" r="88.177"/><path d="m256 362.692c-41.034-7.548-72.145-43.435-72.145-86.651 0-20.26 6.905-38.866 18.391-53.755-20.901 16.124-34.423 41.348-34.423 69.787 0 48.699 39.478 88.177 88.177 88.177z" fill="#fff5d7"/><path d="m256 380.25-22.854-34.281c-3.937-5.906.296-13.816 7.394-13.816h30.919c7.098 0 11.331 7.91 7.394 13.816z" fill="#d19a6e"/><path d="m39.565 166.776c0-62.274 41.817-114.678 98.869-130.95-72.767 2.827-130.934 62.545-130.934 136.005 0 135.17 195.727 270.34 239.771 299.046 5.331 3.474 12.128 3.474 17.459 0 3.005-1.959 6.772-4.457 11.079-7.373-49.931-32.97-236.244-164.822-236.244-296.728z" fill="#95d6a4"/></g><g><path d="m368.226 28.057c-43.792 0-85.017 20.001-112.226 53.984-27.209-33.983-68.434-53.984-112.226-53.984-79.277 0-143.774 64.496-143.774 143.774 0 36.221 13.474 75.231 40.047 115.949 20.952 32.104 50.098 65.41 86.626 98.994 61.945 56.949 124.779 95.68 125.407 96.064 1.203.737 2.561 1.105 3.919 1.105s2.717-.369 3.919-1.105c.627-.385 63.462-39.116 125.407-96.064 36.529-33.583 65.674-66.89 86.626-98.994 26.575-40.718 40.049-79.729 40.049-115.949 0-79.278-64.497-143.774-143.774-143.774zm91.231 251.424c-20.242 31.039-48.539 63.367-84.106 96.087-52.077 47.908-104.801 82.707-119.352 92.009-14.529-9.286-67.11-43.982-119.173-91.847-35.612-32.739-63.946-65.088-84.217-96.149-24.956-38.238-37.609-74.49-37.609-107.75 0-71.006 57.768-128.774 128.774-128.774 42.313 0 81.958 20.861 106.051 55.803 1.399 2.03 3.708 3.243 6.174 3.243s4.775-1.212 6.174-3.243c24.093-34.942 63.738-55.803 106.051-55.803 71.008 0 128.776 57.767 128.776 128.774 0 33.231-12.631 69.449-37.543 107.65z"/><path d="m373.398 101.451c-21.796-9.835-51.052 39.482-64.902 70.174-1.218 2.699-2.413 5.451-3.552 8.179-1.596 3.822.209 8.215 4.031 9.811 3.821 1.597 8.214-.208 9.811-4.031 1.084-2.598 2.223-5.218 3.382-7.788 8.28-18.348 18.025-35.024 27.44-46.958 9.661-12.246 15.734-15.357 17.578-15.619 1.023 1.556 2.709 8.167-.082 23.514-2.719 14.955-8.777 33.296-17.057 51.644-6.578 14.576-14.139 28.186-21.702 39.149-17.557-20.28-43.478-33.13-72.345-33.13-14.183 0-27.653 3.106-39.772 8.667-3.308-10.755-7.639-22.171-12.724-33.438-13.85-30.691-43.103-80.013-64.902-70.174-21.796 9.836-4.171 64.403 9.679 95.095 7.8 17.285 16.964 33.355 26.045 45.74-8.88 14.513-14.004 31.562-14.004 49.787 0 52.757 42.92 95.677 95.677 95.677s95.677-42.92 95.677-95.677c0-18.224-5.123-35.272-14.002-49.785 9.079-12.383 18.25-28.472 26.044-45.742 13.851-30.692 31.476-85.259 9.68-95.095zm-211.445 88.925c-8.28-18.348-14.337-36.689-17.057-51.644-2.791-15.346-1.105-21.958-.082-23.514 1.844.262 7.917 3.374 17.578 15.619 9.415 11.934 19.16 28.61 27.44 46.958 5.327 11.805 9.778 23.745 12.991 34.778-7.123 4.78-13.572 10.488-19.17 16.954-7.56-10.96-15.116-24.562-21.7-39.151zm76.531 150.079c-.072-.108-.171-.257-.026-.529.146-.272.325-.272.455-.272h34.173c.13 0 .309 0 .455.272s.046.421-.026.53l-17.515 26.273zm32.471 30.883 15.041-22.562c3.18-4.77 3.476-10.874.771-15.928s-7.947-8.195-13.68-8.195h-34.173c-5.733 0-10.975 3.14-13.68 8.195s-2.41 11.158.771 15.928l15.041 22.562c-37.362-7.035-65.722-39.891-65.722-79.265 0-44.486 36.192-80.678 80.677-80.678s80.677 36.192 80.677 80.678c-.001 39.374-28.361 72.23-65.723 79.265z"/><path d="m207.901 284.573c-4.142 0-7.5 3.358-7.5 7.5v8.016c0 4.142 3.358 7.5 7.5 7.5s7.5-3.358 7.5-7.5v-8.016c0-4.142-3.358-7.5-7.5-7.5z"/><path d="m304.095 284.573c-4.142 0-7.5 3.358-7.5 7.5v8.016c0 4.142 3.358 7.5 7.5 7.5s7.5-3.358 7.5-7.5v-8.016c0-4.142-3.358-7.5-7.5-7.5z"/></g></g></svg>